<?xml version="1.0" encoding="utf-8"?>
<!-- Generator: Adobe Illustrator 19.0.0, SVG Export Plug-In . SVG Version: 6.00 Build 0)  -->
<svg version="1.1" id="Layer_1" xmlns="http://www.w3.org/2000/svg" xmlns:xlink="http://www.w3.org/1999/xlink" x="0px" y="0px"
	 viewBox="0 0 237 47" style="enable-background:new 0 0 237 47;" xml:space="preserve">
<style type="text/css">
	.st0{fill:#2D2D2D;}
	.st1{fill:#EF5753;}
</style>
<g id="XMLID_3_">
	<path id="XMLID_23_" class="st0" d="M11.3,45.3c-1.2,0-2-0.3-2.5-0.8S8,43,8,41.5c0-1,0.1-2.2,0.3-3.6c0.2-1.4,0.5-3.5,1-6.4
		c0.1-0.4,0.3-1.9,0.8-4.7c0.4-2.7,0.8-5.6,1.2-8.6c0.3-2.6,0.5-4.5,0.5-5.8c0-1.4-0.5-2.2-1.6-2.2c-0.8,0-1.8,0.4-3,1.3
		c-1.2,0.8-2.5,2.2-3.9,4.1c-0.4,0.6-0.9,0.9-1.5,0.9c-0.4,0-0.8-0.2-1.2-0.6c-0.3-0.4-0.5-0.9-0.5-1.5c0-0.5,0.1-1.1,0.3-1.6
		c0.2-0.5,0.5-1.1,1.1-1.8c1.6-2.1,3.3-3.8,5.2-5s3.9-1.8,6-1.8c1.8,0,3.1,0.5,4,1.6S18,8.5,18,10.6c0,1.9-0.3,4.5-0.8,8.1
		c1.6-4.7,3.6-8.3,6.1-10.8c2.5-2.4,5.4-3.7,8.7-3.7c2.6,0,4.6,0.7,5.9,2.2c1.3,1.5,2,3.5,2,6c0,1.4-0.2,3.1-0.6,5.1l-2.9,13.7
		c-0.3,1.6-0.5,3-0.5,4.1c0,1.3,0.3,2.4,0.9,3s1.5,1,2.6,1s2.1-0.4,3.1-1.1c1-0.7,2.2-1.9,3.6-3.5c0.4-0.4,0.8-0.7,1.3-0.7
		c0.4,0,0.7,0.2,1,0.6c0.2,0.4,0.4,0.9,0.4,1.6c0,1.2-0.3,2.2-0.9,3c-1.7,2-3.3,3.5-4.9,4.4S39.7,45,37.9,45c-2.7,0-4.8-0.8-6.4-2.4
		c-1.5-1.6-2.3-3.8-2.3-6.5c0-1.1,0.1-2.2,0.3-3.5c0.2-1.2,0.5-2.8,0.9-4.8l1.9-8.8c0.1-0.3,0.2-0.8,0.3-1.5
		c0.2-0.7,0.3-1.4,0.4-2.1c0.1-0.7,0.1-1.3,0.1-1.9c0-1-0.3-1.8-0.9-2.4c-0.6-0.6-1.4-0.9-2.4-0.9c-1.9,0-3.8,1-5.8,3.1
		c-1.9,2-3.7,5.4-5.3,9.9s-2.9,10.4-3.8,17.5c-0.2,1.6-0.6,2.8-1,3.4C13.4,45,12.6,45.3,11.3,45.3L11.3,45.3z M69.4,30.4
		c0.4,0,0.7,0.2,1,0.6c0.2,0.4,0.3,0.9,0.3,1.6c0,1.5-0.5,2.4-1.4,2.7c-1.9,0.7-4,1.1-6.3,1.2c-0.6,2.7-1.8,4.8-3.6,6.5
		c-1.8,1.6-3.8,2.4-6.1,2.4c-1.9,0-3.6-0.5-4.9-1.4c-1.4-0.9-2.4-2.2-3.1-3.7s-1.1-3.2-1.1-5c0-2.4,0.5-4.6,1.4-6.5s2.2-3.4,3.8-4.5
		c1.6-1.1,3.4-1.6,5.4-1.6c2.4,0,4.4,0.8,5.9,2.5s2.4,3.8,2.6,6.2c1.5-0.1,3.3-0.4,5.4-1C69,30.4,69.2,30.4,69.4,30.4L69.4,30.4z
		 M53.7,40.3c1,0,1.9-0.4,2.7-1.2c0.8-0.8,1.3-2,1.5-3.6c-1-0.7-1.8-1.6-2.3-2.6c-0.5-1.1-0.8-2.2-0.8-3.5c0-0.5,0-1,0.1-1.5h-0.2
		c-1.3,0-2.3,0.6-3.2,1.8c-0.8,1.2-1.3,3-1.3,5.2c0,1.8,0.3,3.1,1,4C51.9,39.8,52.7,40.3,53.7,40.3L53.7,40.3z M72.5,45.3
		c-2.1,0-3.6-0.7-4.5-2.2s-1.4-3.4-1.4-5.9c0-1.4,0.2-3.3,0.6-5.5c0.4-2.3,0.8-4.4,1.4-6.3c0.3-1,0.7-1.7,1.2-2.1s1.2-0.6,2.3-0.6
		c1.6,0,2.4,0.5,2.4,1.6c0,0.8-0.3,2.7-0.9,5.6c-0.8,3.5-1.2,5.9-1.2,7.2c0,1,0.1,1.7,0.4,2.2s0.7,0.8,1.3,0.8
		c0.6,0,1.3-0.4,2.2-1.2c0.9-0.8,2-2.1,3.5-3.8c0.4-0.4,0.8-0.7,1.3-0.7c0.4,0,0.7,0.2,1,0.6c0.2,0.4,0.4,0.9,0.4,1.6
		c0,1.3-0.3,2.3-0.9,3C78.2,43.4,75.2,45.3,72.5,45.3L72.5,45.3z M72.9,19.6c-1.3,0-2.4-0.3-3-0.9c-0.7-0.6-1-1.5-1-2.6
		c0-1.1,0.4-2.1,1.3-2.8c0.9-0.8,2-1.1,3.3-1.1c1.2,0,2.1,0.3,2.9,0.9c0.7,0.6,1.1,1.4,1.1,2.4c0,1.3-0.4,2.3-1.2,3
		C75.4,19.2,74.2,19.6,72.9,19.6L72.9,19.6z M87.3,46.4c-1.7,0-2.9-0.4-3.8-1.2s-1.3-1.6-1.3-2.6c0-0.8,0.3-1.6,0.9-2.2
		c0.6-0.6,1.5-0.9,2.7-0.9c0.4,0,0.9,0,1.5,0.1s1,0.1,1.3,0.2c0-0.8-0.2-1.6-0.6-2.4c-0.3-0.7-0.8-1.4-1.3-2.1
		c-0.5-0.7-1-1.3-1.4-1.8c-1,1.9-2,3.5-3,4.7s-2,2.4-3.2,3.6c-0.6,0.6-1.2,0.9-1.8,0.9c-0.5,0-0.9-0.2-1.2-0.6
		c-0.3-0.4-0.5-0.8-0.5-1.4c0-0.6,0.2-1.2,0.7-1.8l0.6-0.8c1.8-2.2,3.1-4,4-5.4c0.5-0.9,1.2-2.2,1.9-3.7c0.7-1.6,1.5-3.2,2.2-4.8
		c0.6-1.4,1.9-2.1,3.8-2.1c0.9,0,1.5,0.1,1.9,0.2c0.4,0.2,0.5,0.4,0.5,0.8c0,0.2-0.1,0.5-0.2,0.9s-0.3,0.8-0.5,1.2
		c-0.6,1.2-0.9,2.1-0.9,2.9c0,0.5,0.2,1,0.5,1.6s0.9,1.3,1.6,2.2c1,1.3,1.8,2.5,2.3,3.4s0.8,2,0.8,3.1c0,0.3,0,0.8-0.1,1.3
		c1.6-0.6,3.4-2.2,5.5-4.8c0.4-0.4,0.8-0.7,1.3-0.7c0.4,0,0.7,0.2,1,0.6c0.2,0.4,0.4,0.9,0.4,1.6c0,1.2-0.3,2.2-0.9,3
		c-1.6,2-3.1,3.3-4.6,4.1c-1.5,0.7-3.3,1.1-5.4,1.2C90.6,45.9,89.1,46.4,87.3,46.4L87.3,46.4z M120.3,34.4c0.4,0,0.7,0.2,1,0.6
		c0.2,0.4,0.4,0.9,0.4,1.6c0,1.3-0.3,2.3-0.9,3c-1.2,1.4-2.9,2.8-5,4c-2.2,1.2-4.5,1.8-6.9,1.8c-3.4,0-6-0.9-7.8-2.7
		c-1.9-1.8-2.8-4.3-2.8-7.5c0-2.2,0.5-4.3,1.4-6.2s2.2-3.4,3.9-4.5c1.6-1.1,3.5-1.7,5.6-1.7c1.9,0,3.3,0.6,4.5,1.7
		c1.1,1.1,1.7,2.6,1.7,4.5c0,2.2-0.8,4.1-2.4,5.7s-4.3,2.8-8,3.8c0.8,1.5,2.3,2.2,4.6,2.2c1.4,0,3.1-0.5,4.9-1.5
		c1.8-1,3.4-2.3,4.8-4C119.4,34.6,119.8,34.4,120.3,34.4L120.3,34.4z M108.2,27.4c-1.2,0-2.2,0.7-3,2.1c-0.8,1.4-1.2,3-1.2,5v0.1
		c1.9-0.4,3.4-1.1,4.5-2s1.6-1.9,1.6-3.1c0-0.6-0.2-1.1-0.5-1.5C109.2,27.6,108.8,27.4,108.2,27.4L108.2,27.4z M137.2,45.3
		c-3.8,0-7.1-0.7-9.9-2.1s-5-3.4-6.5-5.9c-1.5-2.6-2.3-5.5-2.3-8.9c0-4.7,0.9-8.9,2.7-12.5s4.2-6.5,7.2-8.5s6.4-3,10.1-3
		c3.5,0,6.1,0.9,7.9,2.7s2.7,4.1,2.7,7c0,2-0.3,3.5-1,4.7s-1.7,1.8-3,1.8c-0.9,0-1.6-0.2-2.1-0.6c-0.5-0.4-0.8-1-0.8-1.8
		c0-0.3,0.1-0.8,0.2-1.6c0.2-1,0.3-1.7,0.3-2.3c0-2.9-1.6-4.4-4.7-4.4c-2.1,0-4.1,0.7-6,2.1s-3.5,3.4-4.7,6.1s-1.8,5.8-1.8,9.5
		c0,3.8,1.1,6.8,3.2,8.9c2.1,2.1,5.3,3.1,9.5,3.1c2.1,0,4.2-0.3,6.3-0.8s4.5-1.3,7.1-2.4c0.5-0.2,0.9-0.3,1.2-0.3
		c0.5,0,0.9,0.2,1.2,0.6c0.3,0.4,0.4,0.9,0.4,1.5c0,2-1.1,3.4-3.2,4.3c-2.3,1-4.6,1.7-7.1,2.2C141.7,45.1,139.4,45.3,137.2,45.3
		L137.2,45.3z M168.9,34.4c0.4,0,0.7,0.2,1,0.6c0.2,0.4,0.4,0.9,0.4,1.6c0,1.3-0.3,2.3-0.9,3c-1.4,1.7-2.9,3.1-4.5,4.2
		c-1.6,1.1-3.4,1.6-5.5,1.6c-2.8,0-4.9-1.3-6.3-3.8c-1.4-2.6-2-5.9-2-9.9c0-3.9,0.5-8.4,1.5-13.3c1-5,2.5-9.3,4.5-12.9
		s4.3-5.4,7-5.4c1.5,0,2.7,0.7,3.6,2.1c0.9,1.4,1.3,3.5,1.3,6.1c0,3.8-1.1,8.2-3.2,13.2c-2.1,5-5,10-8.6,14.9
		c0.2,1.3,0.6,2.2,1.1,2.8s1.2,0.8,2,0.8c1.3,0,2.5-0.4,3.5-1.1c1-0.8,2.3-2,3.8-3.9C168,34.6,168.4,34.4,168.9,34.4L168.9,34.4z
		 M163,4.7c-0.7,0-1.6,1.3-2.5,4s-1.7,6-2.4,9.9s-1.1,7.7-1.2,11.3c2.3-3.7,4.1-7.5,5.4-11.3c1.3-3.8,2-7.2,2-10.3
		C164.3,5.9,163.9,4.7,163,4.7L163,4.7z M190.8,30.4c0.4,0,0.7,0.2,1,0.6c0.2,0.4,0.3,0.9,0.3,1.6c0,1.5-0.5,2.4-1.4,2.7
		c-1.9,0.7-4,1.1-6.3,1.2c-0.6,2.7-1.8,4.8-3.6,6.5c-1.8,1.6-3.8,2.4-6.1,2.4c-1.9,0-3.6-0.5-4.9-1.4c-1.4-0.9-2.4-2.2-3.1-3.7
		c-0.7-1.5-1.1-3.2-1.1-5c0-2.4,0.5-4.6,1.4-6.5s2.2-3.4,3.8-4.5s3.4-1.6,5.4-1.6c2.4,0,4.4,0.8,5.9,2.5s2.4,3.8,2.6,6.2
		c1.5-0.1,3.3-0.4,5.4-1C190.4,30.4,190.6,30.4,190.8,30.4L190.8,30.4z M175.1,40.3c1,0,1.9-0.4,2.7-1.2s1.3-2,1.5-3.6
		c-1-0.7-1.8-1.6-2.3-2.6c-0.5-1.1-0.8-2.2-0.8-3.5c0-0.5,0-1,0.1-1.5h-0.2c-1.3,0-2.3,0.6-3.2,1.8c-0.8,1.2-1.3,3-1.3,5.2
		c0,1.8,0.3,3.1,1,4C173.3,39.8,174.1,40.3,175.1,40.3L175.1,40.3z M192.9,45.3c-1.4,0-2.6-0.7-3.5-2s-1.4-3-1.4-5
		c0-2.4,0.2-4.6,0.5-6.6s0.8-4.1,1.6-6.4c0.3-1,0.8-1.6,1.3-2.1c0.6-0.4,1.5-0.6,2.7-0.6c0.7,0,1.2,0.1,1.5,0.3s0.4,0.6,0.4,1
		c0,0.3-0.2,1.1-0.5,2.6c-0.3,1.2-0.6,2.3-0.8,3.2c-0.6,3.4-1,5.6-1,6.7c0,0.7,0.1,1.1,0.2,1.4c0.2,0.3,0.4,0.4,0.8,0.4
		c0.5,0,1.1-0.5,1.8-1.4s1.5-2.4,2.3-4.4s1.6-4.4,2.4-7.2c0.3-1,0.6-1.6,1.2-2.1c0.5-0.4,1.3-0.6,2.4-0.6c0.7,0,1.2,0.1,1.5,0.3
		s0.4,0.5,0.4,1c0,0.8-0.4,3-1.2,6.6c-0.9,4.1-1.3,6.6-1.3,7.6c0,0.6,0.1,1.1,0.4,1.4c0.3,0.3,0.6,0.5,1,0.5c0.6,0,1.4-0.4,2.3-1.2
		c0.9-0.8,2.1-2.1,3.5-3.8c0.4-0.4,0.8-0.7,1.3-0.7c0.4,0,0.7,0.2,1,0.6c0.2,0.4,0.4,0.9,0.4,1.6c0,1.3-0.3,2.3-0.9,3
		c-1.4,1.7-2.9,3.1-4.4,4.2c-1.6,1.1-3.4,1.6-5.4,1.6c-1.5,0-2.7-0.6-3.4-1.8s-1.1-2.8-1.1-5c-0.5,2.2-1.4,3.8-2.4,5
		C195.3,44.8,194.1,45.3,192.9,45.3L192.9,45.3z M227.6,34.4c0.4,2.6,0.9,5.2,1.5,7.8c0.1,0.4,0.2,0.8,0.2,1.3
		c0,1.4-0.9,2.2-2.6,2.2c-1,0-1.8-0.3-2.3-0.8s-1-1.6-1.5-3.1v-0.2c-1.2,1.5-2.3,2.5-3.3,3s-2.1,0.8-3.4,0.8c-2,0-3.6-0.7-4.8-2.2
		c-1.3-1.5-1.9-3.4-1.9-5.7c0-2.6,0.5-4.9,1.6-7.1c1.1-2.2,2.6-4,4.5-5.4s4-2.2,6.3-2.5c0.6-6,1.8-11.3,3.5-15.8s4-6.7,6.8-6.7
		c1.4,0,2.5,0.6,3.4,1.9S237,5,237,7.6c0,3.5-0.9,7.6-2.6,12.3C232.8,24.6,230.5,29.4,227.6,34.4L227.6,34.4z M217.9,40.5
		c0.6,0,1.3-0.2,1.8-0.7s1.4-1.4,2.3-2.8c-0.3-2.3-0.5-4.8-0.5-7.2c0-1,0-1.8,0-2.3c-1.8,0.5-3.2,1.7-4.4,3.5s-1.7,3.8-1.7,6
		C215.5,39.3,216.3,40.5,217.9,40.5L217.9,40.5z M231.7,4.7c-0.9,0-1.8,2.4-2.6,7.1s-1.4,9.9-1.7,15.5c3.6-7.7,5.3-13.9,5.3-18.7
		c0-1.2-0.1-2.2-0.3-2.8C232.3,5,232,4.7,231.7,4.7L231.7,4.7z"/>
</g>
<circle id="XMLID_2_" class="st1" cx="136.5" cy="27.5" r="3.5"/>
</svg>
